<svg width="40" height="40" viewBox="0 0 40 40" fill="none" xmlns="http://www.w3.org/2000/svg">
<path d="M23.3335 3.33325C23.3335 3.33325 27.0002 3.66658 31.6668 8.33325C36.3335 12.9999 36.6668 16.6666 36.6668 16.6666" stroke="#1E53AE" stroke-width="1.5" stroke-linecap="round"/>
<path d="M23.6782 9.22607C23.6782 9.22607 25.3281 9.69748 27.803 12.1724C30.2779 14.6472 30.7493 16.2971 30.7493 16.2971" stroke="#1E53AE" stroke-width="1.5" stroke-linecap="round"/>
<path d="M17.0626 6.19362L18.1443 8.13183C19.1205 9.88097 18.7286 12.1755 17.1912 13.713C17.1912 13.713 17.1912 13.713 17.1912 13.713C17.1911 13.7131 15.3264 15.578 18.7075 18.9591C22.088 22.3396 23.9529 20.4763 23.9537 20.4755C23.9537 20.4755 23.9537 20.4755 23.9537 20.4755C25.4912 18.938 27.7857 18.5462 29.5348 19.5223L31.473 20.604C34.1143 22.078 34.4262 25.7821 32.1046 28.1037C30.7096 29.4987 29.0007 30.5841 27.1115 30.6557C23.9313 30.7763 18.5305 29.9715 13.1128 24.5538C7.69521 19.1362 6.89036 13.7354 7.01092 10.5551C7.08254 8.666 8.168 6.95706 9.56301 5.56205C11.8846 3.24047 15.5886 3.5524 17.0626 6.19362Z" stroke="#1E53AE" stroke-width="1.5" stroke-linecap="round"/>
</svg>
