<svg width="48" height="48" viewBox="0 0 48 48" fill="none" xmlns="http://www.w3.org/2000/svg">
<g clip-path="url(#clip0_319_505)">
<path fill-rule="evenodd" clip-rule="evenodd" d="M14.4 24C14.4002 22.1525 14.9334 20.3444 15.9357 18.7925C16.9381 17.2405 18.3669 16.0108 20.0508 15.2508C21.7347 14.4908 23.6021 14.2328 25.429 14.5078C27.2559 14.7829 28.9646 15.5791 30.3501 16.8012C31.7357 18.0232 32.7392 19.6191 33.2402 21.3973C33.7412 23.1755 33.7185 25.0606 33.1748 26.8262C32.6311 28.5918 31.5895 30.1631 30.1749 31.3514C28.7604 32.5397 27.033 33.2947 25.2 33.5256V26.4H27.6C27.9183 26.4 28.2235 26.2736 28.4485 26.0485C28.6736 25.8235 28.8 25.5183 28.8 25.2C28.8 24.8817 28.6736 24.5765 28.4485 24.3515C28.2235 24.1264 27.9183 24 27.6 24H25.2V21.6C25.2 21.2817 25.3264 20.9765 25.5515 20.7515C25.7765 20.5264 26.0817 20.4 26.4 20.4H27C27.3183 20.4 27.6235 20.2736 27.8485 20.0485C28.0736 19.8235 28.2 19.5183 28.2 19.2C28.2 18.8817 28.0736 18.5765 27.8485 18.3515C27.6235 18.1264 27.3183 18 27 18H26.4C25.4452 18 24.5295 18.3793 23.8544 19.0544C23.1793 19.7295 22.8 20.6452 22.8 21.6V24H20.4C20.0817 24 19.7765 24.1264 19.5515 24.3515C19.3264 24.5765 19.2 24.8817 19.2 25.2C19.2 25.5183 19.3264 25.8235 19.5515 26.0485C19.7765 26.2736 20.0817 26.4 20.4 26.4H22.8V33.5256C20.48 33.2331 18.3466 32.1039 16.8 30.3501C15.2534 28.5963 14.4 26.3383 14.4 24ZM24 36C30.6276 36 36 30.6276 36 24C36 17.3724 30.6276 12 24 12C17.3724 12 12 17.3724 12 24C12 30.6276 17.3724 36 24 36Z" fill="#1E53AE"/>
</g>
<defs>
<clipPath id="clip0_319_505">
<rect width="48" height="48" fill="white"/>
</clipPath>
</defs>
</svg>
