<svg width="40" height="40" viewBox="0 0 40 40" fill="none" xmlns="http://www.w3.org/2000/svg">
<path d="M3.33325 19.9999C3.33325 12.1432 3.33325 8.21481 5.77403 5.77403C8.21481 3.33325 12.1432 3.33325 19.9999 3.33325C27.8567 3.33325 31.785 3.33325 34.2258 5.77403C36.6666 8.21481 36.6666 12.1432 36.6666 19.9999C36.6666 27.8567 36.6666 31.785 34.2258 34.2258C31.785 36.6666 27.8567 36.6666 19.9999 36.6666C12.1432 36.6666 8.21481 36.6666 5.77403 34.2258C3.33325 31.785 3.33325 27.8567 3.33325 19.9999Z" stroke="#1E53AE" stroke-width="1.5"/>
<path d="M13.3333 28.3334H22.2221M17.7777 11.6667H26.6666M17.7777 28.3334L22.2221 11.6667" stroke="#1E53AE" stroke-width="1.5" stroke-linecap="round" stroke-linejoin="round"/>
</svg>
