<svg xmlns="http://www.w3.org/2000/svg" fill="#333" viewBox="0 0 1100 1000"><path transform="translate(0 1000) scale(1 -1)" d="M615 332q19 5 38 -1.5t30 -23.5l138 -198q13 -14 17 -33t-3 -37t-21.5 -30t-33 -13.5t-35 7t-26.5 25.5l-132 190q-15 18 -20 41q-2 25 12 46.5t38 27.5v0zM486 1001q29 7 52.5 -10.5t26.5 -47.5v-257q0 -27 -19 -46.5t-45.5 -19.5t-45 19.5t-18.5 46.5v250q0 24 14 42t35 23v0zM49 668q26 5 50 -6l187 -64q23 -5 43 -18q17 -15 21.5 -38t-5 -44.5t-31.5 -32t-45 -3.5l-223 78q-20 7 -31.5 25.5t-11 40t13 39t32.5 23.5v0zM916 668q25 8 48.5 -4t32.5 -37q8 -23 0 -46t-29 -35q-11 -6 -23 -10l-215 -73q-22 -6 -43 3.5t-31.5 30t-6.5 44t21 38.5q20 15 44 20zM353 332q21 6 40.5 -2.5t31 -27t10 -40.5t-15.5 -39l-136 -195q-9 -14 -23.5 -21.5t-30.5 -7t-30 9t-23 22.5q-10 18 -9 39t13 38l135 194q14 22 38 30z" /></svg>