<svg xmlns="http://www.w3.org/2000/svg" fill="#333" viewBox="0 0 1100 1000"><path transform="translate(0 1000) scale(1 -1)" d="M910 760q-54 85 -130 139.5t-175 77.5q-159 37 -313 -31q-84 -38 -147 -103q-79 -82 -115 -185l-3 -9q-11 -39 -9.5 -66t14 -33t29.5 12l6 7q18 22 46 47q19 18 42 34l18 13q26 18 52 33q36 21 62 30l5 3q6 5 11 11q6 9 8 21l1 2q2 14 10 31q12 21 29 35q23 17 53 19q29 4 58 -10q25 -11 41 -32.5t20 -48.5q6 -43 -18 -77l-4 -5q-19 -25 -49 -35q-17 -7 -36 -7q-10 -2 -23.5 1t-24.5 10q-18 8 -27 16q-4 4 -9 5q-9 1 -17 -2v0q-3 -1 -5 -3q-23 -19 -45 -41q-42 -45 -83 -105q-12 -21 -21.5 -38.5t-17.5 -36.5q-14 -31 -25 -64l-3 -11q-17 -55 -13 -102q4 -42 22 -65.5t44 -20t51 36.5l11 18q25 43 64 85q32 35 71 67q29 24 58 44l24 16q15 9 27 17l2 1q38 21 78 38.5t69 25.5l6 2q8 4 14 11q8 10 11 23q4 19 16 37q15 21 39 33q11 5 25 8.5t29 3.5q8 0 15 -2q34 -7 58.5 -32.5t28.5 -61.5q3 -28 -8 -54t-33.5 -43.5t-51.5 -20.5q-44 -5 -77 20q-28 11 -52 0q-31 -17 -63 -39q-42 -32 -79 -69q-39 -40 -68 -86l-4 -6q-37 -58 -60 -125l-4 -11q-14 -45 10 -71q18 -21 60 -29l25 -3q33 -3 67 0h8q27 3 41 6q142 24 246 118q134 120 159 297.5t-71 328.5z" /></svg>