<svg width="48" height="48" viewBox="0 0 48 48" fill="none" xmlns="http://www.w3.org/2000/svg">
<path d="M12 24C12 27.1826 13.2643 30.2348 15.5147 32.4853C17.7652 34.7357 20.8174 36 24 36C27.1826 36 30.2348 34.7357 32.4853 32.4853C34.7357 30.2348 36 27.1826 36 24C36 20.8174 34.7357 17.7652 32.4853 15.5147C30.2348 13.2643 27.1826 12 24 12C20.8174 12 17.7652 13.2643 15.5147 15.5147C13.2643 17.7652 12 20.8174 12 24Z" stroke="#1E53AE" stroke-width="1.71429" stroke-linecap="round" stroke-linejoin="round"/>
<path d="M28.4277 18.4287L27.5043 31.4287L22.4348 25.7919L16.4277 24.4294L28.4277 18.4287Z" stroke="#1E53AE" stroke-width="1.71429" stroke-linecap="round" stroke-linejoin="round"/>
<path d="M20.4277 25.4686L21.2863 30.4287L24.4277 27.8231M22.5516 25.894L24.3825 24.4287" stroke="#1E53AE" stroke-width="1.71429" stroke-linecap="round" stroke-linejoin="round"/>
</svg>
