<svg width="48" height="48" viewBox="0 0 48 48" fill="none" xmlns="http://www.w3.org/2000/svg">
<path d="M18.322 17.3292C18.1024 17.2993 17.8784 17.3406 17.6874 17.4464H17.6708C17.2277 17.6897 16.8282 17.996 16.4879 18.3565C16.2043 18.6628 16.0506 18.9724 16.0105 19.271C15.9868 19.4479 16.0034 19.6271 16.0589 19.7963L16.0802 19.8073C16.3993 20.6842 16.8152 21.528 17.3234 22.322C17.9786 23.4372 18.785 24.4686 19.7224 25.3906L19.7507 25.4282L19.7956 25.4592L19.8228 25.489L19.8559 25.5156C20.8447 26.3954 21.9496 27.1535 23.1436 27.7714C24.5085 28.467 25.3369 28.7954 25.8345 28.9325V28.9392C25.9798 28.9812 26.1122 29 26.2457 29C26.6694 28.9707 27.0705 28.8095 27.3849 28.5422C27.769 28.2237 28.094 27.8488 28.3469 27.4319V27.4242C28.5844 27.004 28.5041 26.6081 28.1614 26.3394C27.473 25.7766 26.7286 25.2767 25.9385 24.8465C25.409 24.5778 24.8713 24.7404 24.6539 25.0124L24.1895 25.5609C23.9507 25.8329 23.5182 25.7953 23.5182 25.7953L23.5064 25.802C20.279 25.0312 19.4175 21.9736 19.4175 21.9736C19.4175 21.9736 19.3773 21.5578 19.6763 21.3455L20.2577 20.9076C20.5366 20.6953 20.7304 20.1933 20.4314 19.6979C19.9748 18.9578 19.4416 18.2615 18.8396 17.6189C18.7083 17.4677 18.5241 17.3647 18.3196 17.3281L18.322 17.3292ZM23.7758 16C23.6191 16 23.4688 16.0583 23.358 16.1619C23.2472 16.2656 23.1849 16.4063 23.1849 16.5529C23.1849 16.6995 23.2472 16.8402 23.358 16.9439C23.4688 17.0476 23.6191 17.1058 23.7758 17.1058C25.2696 17.1058 26.5104 17.5625 27.4925 18.4383C27.9971 18.9171 28.3906 19.4844 28.6482 20.1059C28.9071 20.7285 29.0252 21.3931 28.9945 22.0588C28.9879 22.2054 29.0439 22.3485 29.15 22.4565C29.2562 22.5646 29.4039 22.6288 29.5606 22.6349C29.7173 22.6411 29.8702 22.5887 29.9857 22.4894C30.1011 22.3901 30.1697 22.2519 30.1763 22.1052C30.2129 21.2863 30.0677 20.4693 29.7497 19.7056C29.4303 18.9383 28.946 18.2405 28.3268 17.6554L28.315 17.6444C27.0966 16.5551 25.5556 16 23.7758 16Z" fill="#1E53AE"/>
<path d="M23.6823 18.3226C23.5386 18.3226 23.4009 18.3797 23.2993 18.4813C23.1977 18.5828 23.1406 18.7206 23.1406 18.8643C23.1406 19.0079 23.1977 19.1457 23.2993 19.2473C23.4009 19.3489 23.5386 19.4059 23.6823 19.4059H23.7007C24.6887 19.4764 25.408 19.8057 25.9118 20.3463C26.4285 20.9031 26.6961 21.5954 26.6755 22.4512C26.6722 22.5949 26.7261 22.7339 26.8254 22.8379C26.9246 22.9418 27.0611 23.002 27.2048 23.0053C27.3484 23.0086 27.4875 22.9547 27.5914 22.8555C27.6953 22.7562 27.7556 22.6198 27.7589 22.4761C27.7849 21.3527 27.423 20.3831 26.7059 19.6096V19.6074C25.9725 18.8209 24.966 18.4049 23.7549 18.3237L23.7365 18.3215L23.6823 18.3226Z" fill="#1E53AE"/>
<path d="M23.6615 20.1374C23.5891 20.131 23.516 20.1392 23.4468 20.1617C23.3776 20.1841 23.3136 20.2203 23.2587 20.268C23.2037 20.3158 23.159 20.3741 23.1271 20.4395C23.0952 20.5049 23.0768 20.5761 23.073 20.6487C23.0692 20.7214 23.0801 20.7941 23.105 20.8625C23.13 20.9308 23.1684 20.9935 23.2181 21.0467C23.2678 21.0998 23.3276 21.1425 23.3942 21.172C23.4607 21.2015 23.5324 21.2173 23.6052 21.2185C24.058 21.2424 24.3473 21.3788 24.5293 21.5619C24.7124 21.7461 24.8489 22.0418 24.8738 22.5044C24.8751 22.5771 24.8911 22.6488 24.9208 22.7152C24.9504 22.7816 24.9931 22.8413 25.0463 22.8909C25.0995 22.9404 25.1622 22.9787 25.2305 23.0035C25.2989 23.0283 25.3715 23.0391 25.4441 23.0353C25.5167 23.0314 25.5878 23.013 25.6531 22.9811C25.7184 22.9492 25.7767 22.9044 25.8243 22.8495C25.872 22.7946 25.9081 22.7307 25.9306 22.6616C25.953 22.5924 25.9613 22.5194 25.955 22.447C25.9203 21.797 25.7166 21.2228 25.2995 20.8003C24.8803 20.3778 24.3094 20.172 23.6615 20.1374Z" fill="#1E53AE"/>
<path fill-rule="evenodd" clip-rule="evenodd" d="M17.741 12.6104C21.5335 11.7965 25.4665 11.7965 29.2591 12.6104L29.6631 12.6963C30.7718 12.9342 31.79 13.4626 32.6047 14.2228C33.4194 14.9829 33.9986 15.945 34.278 17.0022C35.2407 20.6444 35.2407 24.4597 34.278 28.1018C33.9986 29.159 33.4194 30.1211 32.6047 30.8813C31.79 31.6414 30.7718 32.1698 29.6631 32.4078L29.2579 32.4936C26.8825 33.0036 24.4451 33.1958 22.015 33.0646L18.853 35.7812C18.7338 35.8836 18.5881 35.9535 18.4311 35.9835C18.2742 36.0135 18.1118 36.0025 17.9608 35.9516C17.8098 35.9008 17.6758 35.8119 17.5728 35.6944C17.4697 35.5769 17.4015 35.4349 17.3751 35.2834L16.8518 32.2831C15.8485 31.9834 14.942 31.4416 14.219 30.7095C13.4959 29.9775 12.9806 29.0797 12.722 28.1018C11.7593 24.4597 11.7593 20.6444 12.722 17.0022C13.0014 15.945 13.5807 14.9829 14.3953 14.2228C15.21 13.4626 16.2283 12.9342 17.3369 12.6963L17.741 12.6104ZM28.8693 14.2845C25.3334 13.5257 21.6666 13.5257 18.1307 14.2845L17.7255 14.3715C16.9397 14.5405 16.2181 14.9152 15.6408 15.4542C15.0634 15.9931 14.653 16.6751 14.455 17.4245C13.5655 20.7895 13.5655 24.3146 14.455 27.6796C14.6531 28.4291 15.0637 29.1112 15.6412 29.6502C16.2188 30.1891 16.9407 30.5638 17.7267 30.7326L17.8339 30.7554C18.0074 30.7927 18.1655 30.8788 18.2877 31.0027C18.41 31.1267 18.4911 31.2828 18.5204 31.4512L18.8708 33.4628L21.102 31.5462C21.1911 31.4694 21.2954 31.4106 21.4086 31.3732C21.5218 31.3359 21.6417 31.3208 21.7611 31.3287C24.1437 31.491 26.5382 31.3195 28.8693 30.8195L29.2734 30.7326C30.0594 30.5638 30.7812 30.1891 31.3588 29.6502C31.9363 29.1112 32.347 28.4291 32.545 27.6796C33.4342 24.3154 33.4342 20.7898 32.545 17.4245C32.347 16.675 31.9363 15.9928 31.3588 15.4539C30.7812 14.915 30.0594 14.5403 29.2734 14.3715L28.8693 14.2845Z" fill="#1E53AE"/>
</svg>
